{"title":"Leela (2016) ~2CD DvDRip XviD AC3 5.1 ESub  -DDR","uid":15223431,"size":1561334738,"categoryP":"video","categoryS":"movies","magnet":"?xt=urn:btih:6f992b56db8874c6afd0053c6bf121618f5b1533&amp;dn=Leela+%282016%29+%7E2CD+DvDRip+XviD+AC3+5.1+ESub++-DDR&amp;tr=udp%3A%2F%2Ftracker.leechers-paradise.org%3A6969&amp;tr=udp%3A%2F%2Fzer0day.ch%3A1337&amp;tr=udp%3A%2F%2Fopen.demonii.com%3A1337&amp;tr=udp%3A%2F%2Ftracker.coppersurfer.tk%3A6969&amp;tr=udp%3A%2F%2Fexodus.desync.com%3A6969","seeders":2,"leechers":2,"uploader":"SaM","files":4,"time":1467752551,"description":"- Malayam MoviE -\r\n**- LEELA -**\r\n- 2016 -\r\n** 1/3 DVDrip / XviD / AC3 5.1 **\r\n\r\n ~* SCREENSHOTS *~\r\n \nhttp://extraimago.com/image/akhJ \nhttp://extraimago.com/image/akhK \nhttp://extraimago.com/image/akhZ \nhttp://extraimago.com/image/akhe \nhttp://extraimago.com/image/akh4 \nhttp://extraimago.com/image/akh4 \nhttp://extraimago.com/image/akhB \nhttp://extraimago.com/image/akhC \nhttp://extraimago.com/image/akhY \nhttp://extraimago.com/image/akhp \nhttp://extraimago.com/image/akhr \nhttp://extraimago.com/image/akhG\r\n\r\n\r\n[ Specs ]\r\nGeneral\r\nSource = MPEG DUMP @ (Thanks Lotty for Great Grand Mastery in snatching this leak)\r\nFormat : AVI\r\nFormat/Info : Audio Video Interleave\r\nFile size : 1.44 GiB\r\nDuration : 1h 38mn\r\nOverall bit rate : 2 083 Kbps\r\n\r\nVideo\r\nID : 0\r\nFormat : MPEG-4 Visual\r\nFormat profile : Advanced   \r\nFormat settings, BVOP : 2\r\nFormat settings, QPel : No\r\nFormat settings, GMC : No warppoints\r\nFormat settings, Matrix : Custom\r\nCodec ID : XVID\r\nCodec ID/Hint : XviD\r\nDuration : 1h 38mn\r\nBit rate : 1 624 Kbps\r\nWidth : 720 pixels\r\nHeight : 304 pixels\r\nDisplay aspect ratio : 2.35:1\r\nFrame rate : 23.976 (24000/1001) fps\r\nColor space : YUV\r\nChroma subsampling : 4:2:0\r\nBit depth : 8 bits\r\nScan type : Progressive\r\nCompression mode : Lossy\r\nBits/(Pixel*Frame) : 0.309\r\nStream size : 1.12 GiB (78%)\r\nWriting library : XviD 67\r\n\r\nAudio\r\nID : 1\r\nFormat : AC-3\r\nFormat/Info : Audio Coding 3\r\nMode extension : HI (hearing impaired)\r\nFormat settings, Endianness : Big\r\nCodec ID : 2000\r\nDuration : 1h 38mn\r\nBit rate mode : Constant\r\nBit rate : 448 Kbps\r\nChannel(s) : 6 channels\r\nChannel positions : Front: L C R, Side: L R, LFE\r\nSampling rate : 48.0 KHz\r\nFrame rate : 31.250 fps (1536 spf)\r\nCompression mode : Lossy\r\nStream size : 317 MiB (22%)\r\nAlignment : Aligned on interleaves\r\nInterleave, duration : 32 ms (0.77 video frame)\r\nLanguage : Malayam\r\nDefault : Yes\r\n\r\nChapters: None on source\r\nSample: YES - included\r\n\r\nA DDR 8th Anniversary Exclusive Release...!\r\n\r\n\r\n\r\nDownload Leela (2016) ~2CD DvDRip XviD AC3 5.1 ESub -DDR torrent","torrent":{"xt":"urn:btih:6f992b56db8874c6afd0053c6bf121618f5b1533","amp;dn":"Leela+%282016%29+%7E2CD+DvDRip+XviD+AC3+5.1+ESub++-DDR","amp;tr":["udp%3A%2F%2Ftracker.leechers-paradise.org%3A6969","udp%3A%2F%2Fzer0day.ch%3A1337","udp%3A%2F%2Fopen.demonii.com%3A1337","udp%3A%2F%2Ftracker.coppersurfer.tk%3A6969","udp%3A%2F%2Fexodus.desync.com%3A6969"],"infoHash":"6f992b56db8874c6afd0053c6bf121618f5b1533","infoHashBuffer":{"type":"Buffer","data":[111,153,43,86,219,136,116,198,175,208,5,60,107,241,33,97,143,91,21,51]},"announce":[],"urlList":[]}}